<svg id="Layer_1" data-name="Layer 1" xmlns="http://www.w3.org/2000/svg" viewBox="0 0 521.79 365.73"><defs><style>.cls-1{fill:#90272e;}.cls-2{fill:#969696;}</style></defs><path class="cls-1" d="M241.58,178.78a25,25,0,0,0-6.81-4.77,67,67,0,1,0,6.81,4.77Zm-39.12,5.36a24.59,24.59,0,0,0-3.32,12.72,24.91,24.91,0,0,0,46.24,12.52,26.46,26.46,0,1,1-42.92-25.24ZM219.86,238a33.36,33.36,0,0,0,22.44-9.08,33.44,33.44,0,1,1-50.93-42.81A33.49,33.49,0,0,0,219.86,238Zm-45.68-27.33a40.5,40.5,0,0,0,78.75,12.72,45.31,45.31,0,1,1-62.4-45.8A40.43,40.43,0,0,0,174.18,210.64Zm26.49,80.49a60,60,0,0,1-18.6-117.28,52.35,52.35,0,1,0,77.55,53c.07,1.14.13,2.28.15,3.42A60.06,60.06,0,0,1,200.67,291.13Z"/><path class="cls-2" d="M73.14,139.16,74,198.53l-5.4.08S62,138.24,37.32,150.84c.36,0-21.17,4.63-14.5,91.62,0-.36-.19,36.35,12.16,44.45.36,0,3.28,2.35,10.71,2-.12-.12,8.71-3.37,11.77-15.77.12.36-.05-36.34-.05-36.34l-10.93-.68-.29-11.63,37.9-.44.17,11.64-8.63.12.31,64.27H71L65.1,279.27s-2.73,26.67-33.9,19.62c0,0-26.62-7.22-31.2-74.81.24-.24-2-55.87,20.26-74.67.24-.48,20.84-19.26,41.25-1.08.25.23,6.35-9.09,6.35-9.09Z"/><polygon class="cls-2" points="110.49 153.31 100.38 153.44 100.22 142.69 125.85 139.87 126.33 287.48 135.25 290.52 135.37 300.08 102.52 300.08 102.39 291.25 111.95 287.91 110.49 153.31"/><polygon class="cls-2" points="415.24 153.91 404.12 154.04 403.96 143.34 429.6 140.53 430.06 287.53 438.98 290.56 439.12 300.07 406.25 300.07 406.12 291.28 415.68 287.44 415.24 153.91"/><path class="cls-2" d="M327.09,236.49c.24,0-2.73-39.61-22.43-41.45,0,.51-10.82-1-17.09,13.23-.48-.23-.75-67.64-.75-67.64L259.74,142l.17,11.76,11.39.48,0,145.22,4.87-.07L282.48,279s1.67,15.62,13.95,20.13c0,.06,7.14,1.13,10.46-.15C306.71,298.93,330.25,288.51,327.09,236.49ZM299.56,291.2c-6.61.1-12.25-18.24-12.58-41s4.77-41.21,11.38-41.31,12.26,18.25,12.59,41S306.18,291.11,299.56,291.2Z"/><path class="cls-2" d="M395.73,280.37c-.08,3.15-4.64,5.41-7.3,4-1.61-.86-1.94-2.65-2-4.31-.15-2.36.26-4.7.19-7.05s.09-5,.21-7.42c.24-4.94.63-9.87,1-14.8.12-1.72.23-3.45.32-5.18.88-16.23,3.08-39.88-15.15-47.76-5.83-2.52-13-2-18.75.4-11.49,4.68-15.87,21.09-11,32,2,4.58,6.53,8,10.06,2.78,3.09-4.58,1.44-11.22.37-16.19-.59-2.76-.77-5.84.74-8.23,2.57-4.07,7.88-4.16,12-3.11,6.47,1.63,5.68,13.71,5.81,19a143.55,143.55,0,0,1-.32,14.52c-16.17.49-28.65,10.1-32.26,26a48.2,48.2,0,0,0-.52,18.5,32.48,32.48,0,0,0,1.91,7.06c3.33,8,16.24,12,24,8.81a20.58,20.58,0,0,0,11.4-12.93c-.13.45-.17,6.05,6.11,10.35a11.21,11.21,0,0,0,4.13,1.91c6,1.09,8.09-6.73,8.71-11.14A64.43,64.43,0,0,0,395.73,280.37Zm-33,6.33a26,26,0,0,1-3.64.17c-4,0-4-10.4-4-13.11a30.83,30.83,0,0,1,3.46-15.55,21.21,21.21,0,0,1,6.57-7.27,15.54,15.54,0,0,1,4.55-2.23c1.73-.47,1.86-.47,2.05,1.47s.3,4.12.37,6.18c.29,8.12,2.57,25.43-6.78,29.64A9.74,9.74,0,0,1,362.71,286.7Z"/><path d="M123.22,334.18h-9.06v23.3h-3.33v-23.3h-9.06v-3h21.45Z"/><path d="M130.92,357.85a9.72,9.72,0,0,1-4-.79,9.6,9.6,0,0,1-3.11-2.16,10,10,0,0,1-2-3.18,10.18,10.18,0,0,1-.72-3.82,10,10,0,0,1,1.26-5A9.66,9.66,0,0,1,131,338a9.33,9.33,0,0,1,5.08,1.37,9.65,9.65,0,0,1,3.37,3.61,9.93,9.93,0,0,1,1.2,4.79c0,.25,0,.49,0,.72a4.55,4.55,0,0,1-.05.53h-16a7.26,7.26,0,0,0,1,3.31,6.71,6.71,0,0,0,2.35,2.27,6.16,6.16,0,0,0,3.11.82,6.75,6.75,0,0,0,3.35-.89,4.75,4.75,0,0,0,2.16-2.33l2.81.78a7.37,7.37,0,0,1-1.87,2.51,9.07,9.07,0,0,1-2.92,1.74A10.27,10.27,0,0,1,130.92,357.85Zm-6.51-11.1h13.17a6.94,6.94,0,0,0-1.08-3.29,6.63,6.63,0,0,0-2.36-2.23,6.53,6.53,0,0,0-3.18-.8,6.41,6.41,0,0,0-3.15.8,6.6,6.6,0,0,0-2.35,2.23A7.14,7.14,0,0,0,124.41,346.75Z"/><path d="M152.78,357.85a9.75,9.75,0,0,1-4-.79,9.31,9.31,0,0,1-3.1-2.18,10,10,0,0,1-2-3.2,10.58,10.58,0,0,1,.5-8.77,9.31,9.31,0,0,1,3.44-3.58,9.71,9.71,0,0,1,5.14-1.34,9.51,9.51,0,0,1,5,1.27,8,8,0,0,1,3.16,3.42l-3.18,1a5.22,5.22,0,0,0-2.07-2.12,5.85,5.85,0,0,0-3-.76,6,6,0,0,0-3.24.91,6.59,6.59,0,0,0-2.31,2.51,8.15,8.15,0,0,0,0,7.29,7,7,0,0,0,2.33,2.58,5.83,5.83,0,0,0,3.24,1,6.09,6.09,0,0,0,2.2-.41,6.19,6.19,0,0,0,1.85-1.09,3.57,3.57,0,0,0,1.09-1.5l3.18,1a7,7,0,0,1-1.79,2.49,9.08,9.08,0,0,1-2.85,1.72A10,10,0,0,1,152.78,357.85Z"/><path d="M181.49,357.48h-3.26V346.77a7.52,7.52,0,0,0-1-4.39,3.5,3.5,0,0,0-3-1.47,5.46,5.46,0,0,0-2.53.66,7.5,7.5,0,0,0-2.24,1.77,7,7,0,0,0-1.41,2.58v11.56h-3.25v-27H168v11.95a8.72,8.72,0,0,1,3.13-3.25,8.07,8.07,0,0,1,4.27-1.19,6.34,6.34,0,0,1,2.91.6,5,5,0,0,1,1.87,1.71,7.87,7.87,0,0,1,1,2.55,15,15,0,0,1,.32,3.18Z"/><path d="M203.31,357.48h-3.25V346.77a8.18,8.18,0,0,0-.95-4.45,3.19,3.19,0,0,0-2.86-1.41,5.87,5.87,0,0,0-2.65.66,8.13,8.13,0,0,0-2.33,1.77,6.61,6.61,0,0,0-1.46,2.58v11.56h-3.25v-19.2h2.95v4.15a8.36,8.36,0,0,1,2-2.35,9.19,9.19,0,0,1,2.78-1.54,9.56,9.56,0,0,1,3.25-.55,6,6,0,0,1,2.8.6,4.57,4.57,0,0,1,1.77,1.69,7.85,7.85,0,0,1,.93,2.55,17.76,17.76,0,0,1,.27,3.2Z"/><path d="M216.82,357.85a9.56,9.56,0,0,1-4-.79,9.32,9.32,0,0,1-3.07-2.16,9.74,9.74,0,0,1-2-3.18,10.66,10.66,0,0,1,0-7.6,9.74,9.74,0,0,1,2-3.18,9.16,9.16,0,0,1,3.09-2.16,9.67,9.67,0,0,1,4-.79,9.47,9.47,0,0,1,3.92.79,9.36,9.36,0,0,1,3.09,2.16,9.63,9.63,0,0,1,2,3.18,10.66,10.66,0,0,1,0,7.6,9.91,9.91,0,0,1-2,3.18,9.31,9.31,0,0,1-3.09,2.16A9.67,9.67,0,0,1,216.82,357.85Zm-6.4-9.88a7.42,7.42,0,0,0,.87,3.59,6.78,6.78,0,0,0,2.31,2.55,6,6,0,0,0,6.45,0,6.92,6.92,0,0,0,2.33-2.58,7.55,7.55,0,0,0,.87-3.61,7.45,7.45,0,0,0-.87-3.59,6.86,6.86,0,0,0-2.33-2.56,5.74,5.74,0,0,0-3.23-.95,5.6,5.6,0,0,0-3.22,1,7,7,0,0,0-2.31,2.58A7.48,7.48,0,0,0,210.42,348Z"/><path d="M230.61,330.48h3.26v22.11c0,1.06.15,1.72.44,2a1.63,1.63,0,0,0,1.08.37,6.52,6.52,0,0,0,1.48-.17,8.52,8.52,0,0,0,1.18-.35l.52,2.66a10.36,10.36,0,0,1-1.93.56,9.94,9.94,0,0,1-2,.22,3.77,3.77,0,0,1-4.07-4.08Z"/><path d="M249.55,357.85a9.54,9.54,0,0,1-4-.79,9.32,9.32,0,0,1-3.07-2.16,9.74,9.74,0,0,1-2-3.18,10.66,10.66,0,0,1,0-7.6,9.74,9.74,0,0,1,2-3.18,9.22,9.22,0,0,1,3.08-2.16,9.75,9.75,0,0,1,4-.79,9.47,9.47,0,0,1,3.92.79,9.36,9.36,0,0,1,3.09,2.16,9.63,9.63,0,0,1,2,3.18,10.66,10.66,0,0,1,0,7.6,9.91,9.91,0,0,1-2,3.18,9.31,9.31,0,0,1-3.09,2.16A9.72,9.72,0,0,1,249.55,357.85Zm-6.4-9.88a7.42,7.42,0,0,0,.87,3.59,6.81,6.81,0,0,0,2.32,2.55,6,6,0,0,0,6.45,0,7,7,0,0,0,2.33-2.58,7.55,7.55,0,0,0,.87-3.61,7.45,7.45,0,0,0-.87-3.59,6.94,6.94,0,0,0-2.33-2.56,5.75,5.75,0,0,0-3.24-.95,5.59,5.59,0,0,0-3.21,1,7.06,7.06,0,0,0-2.32,2.58A7.48,7.48,0,0,0,243.15,348Z"/><path d="M271,357.85a8.15,8.15,0,0,1-3.6-.79,8.53,8.53,0,0,1-2.83-2.19,10,10,0,0,1-1.83-3.16,10.52,10.52,0,0,1-.65-3.7,11.2,11.2,0,0,1,.65-3.85,10.06,10.06,0,0,1,1.84-3.2,9.07,9.07,0,0,1,2.83-2.18A8.19,8.19,0,0,1,271,338a7.53,7.53,0,0,1,4.2,1.16,10.42,10.42,0,0,1,3,3v-3.85h2.89v19a7.88,7.88,0,0,1-1.31,4.61,8.38,8.38,0,0,1-3.55,2.86,12.39,12.39,0,0,1-5,1,10.88,10.88,0,0,1-5.33-1.15,10.12,10.12,0,0,1-3.44-3.1l1.89-1.67a7.07,7.07,0,0,0,3,2.55,9.11,9.11,0,0,0,3.9.86,8.36,8.36,0,0,0,3.27-.63,5.25,5.25,0,0,0,3.31-5.18V354a7.67,7.67,0,0,1-2.94,2.82A8,8,0,0,1,271,357.85Zm1-2.66a5.67,5.67,0,0,0,2-.37,7.91,7.91,0,0,0,1.78-1,6.39,6.39,0,0,0,1.36-1.39,4.4,4.4,0,0,0,.74-1.59v-5.55a7.07,7.07,0,0,0-1.47-2.35,7.19,7.19,0,0,0-2.19-1.59,5.86,5.86,0,0,0-2.51-.57,5.49,5.49,0,0,0-2.65.63,6.16,6.16,0,0,0-2,1.68,8.31,8.31,0,0,0-1.26,2.35,8.2,8.2,0,0,0-.44,2.63,7,7,0,0,0,.52,2.71,7.69,7.69,0,0,0,1.4,2.28,6.31,6.31,0,0,0,2.11,1.55A6.22,6.22,0,0,0,272,355.19Z"/><path d="M286.36,334.55v-4.07h3.26v4.07Zm0,22.93V338.17h3.26v19.31Z"/><path d="M303.42,357.85a9.72,9.72,0,0,1-4-.79,9.6,9.6,0,0,1-3.11-2.16,10,10,0,0,1-2-3.18,10.18,10.18,0,0,1-.72-3.82,10.07,10.07,0,0,1,1.25-5,9.69,9.69,0,0,1,8.62-4.95,9.34,9.34,0,0,1,5.09,1.37,9.73,9.73,0,0,1,3.37,3.61,9.93,9.93,0,0,1,1.2,4.79c0,.25,0,.49,0,.72a2.88,2.88,0,0,1-.06.53H297a7.15,7.15,0,0,0,1.05,3.31,6.63,6.63,0,0,0,2.35,2.27,6.16,6.16,0,0,0,3.11.82,6.75,6.75,0,0,0,3.35-.89,4.8,4.8,0,0,0,2.16-2.33l2.81.78a7.37,7.37,0,0,1-1.87,2.51,9.07,9.07,0,0,1-2.92,1.74A10.31,10.31,0,0,1,303.42,357.85Zm-6.51-11.1h13.17a6.94,6.94,0,0,0-1.08-3.29,6.58,6.58,0,0,0-2.37-2.23,6.47,6.47,0,0,0-3.18-.8,6.4,6.4,0,0,0-3.14.8,6.52,6.52,0,0,0-2.35,2.23A7,7,0,0,0,296.91,346.75Z"/><path d="M323.36,357.85a12.71,12.71,0,0,1-4.52-.79,9.67,9.67,0,0,1-3.62-2.39l1.25-2.29a11.11,11.11,0,0,0,3.33,2.22,9.19,9.19,0,0,0,3.41.66,6.28,6.28,0,0,0,3.25-.75,2.4,2.4,0,0,0,1.26-2.2,1.9,1.9,0,0,0-.65-1.58,5.38,5.38,0,0,0-1.83-.86c-.79-.24-1.72-.5-2.81-.79a23.8,23.8,0,0,1-3.37-1.25,5.3,5.3,0,0,1-2.07-1.65,4.24,4.24,0,0,1-.7-2.5,5,5,0,0,1,1-3.1,5.89,5.89,0,0,1,2.65-1.93,10.39,10.39,0,0,1,3.83-.66,10.85,10.85,0,0,1,3.88.66,8.36,8.36,0,0,1,3,2l-1.48,2.26a7.64,7.64,0,0,0-2.52-1.76,7.92,7.92,0,0,0-3.07-.57,8.09,8.09,0,0,0-2,.24,3.48,3.48,0,0,0-1.59.84,2.25,2.25,0,0,0-.63,1.71,2,2,0,0,0,.5,1.44,3.74,3.74,0,0,0,1.48.9c.65.25,1.45.52,2.39.81,1.45.42,2.71.83,3.79,1.25a6.29,6.29,0,0,1,2.49,1.61,3.94,3.94,0,0,1,.89,2.75,5,5,0,0,1-2.07,4.24A9,9,0,0,1,323.36,357.85Z"/><path d="M216.78,65.53l-5.31,6.89L228.83,85.8l-1.47,1.9L210,74.32l-5.31,6.89L203,79.93l12.09-15.68Z"/><path d="M246.46,66.44l-1.64,1.66-6.95-6.87A7.72,7.72,0,0,0,234,58.85,3.52,3.52,0,0,0,230.74,60a5.59,5.59,0,0,0-1.36,2.3,7.29,7.29,0,0,0-.33,2.87,6.57,6.57,0,0,0,.85,2.79l7.63,7.54-1.64,1.66L218.32,59.79,220,58.13,227.89,66a8.19,8.19,0,0,1-.13-4.31,7.85,7.85,0,0,1,2-3.71A5.86,5.86,0,0,1,232,56.45a4.42,4.42,0,0,1,2.34-.15,7.19,7.19,0,0,1,2.39,1,13.85,13.85,0,0,1,2.41,1.94Z"/><path d="M255.93,59a9,9,0,0,1-3.25,1.65,8.68,8.68,0,0,1-3.47.21,9.24,9.24,0,0,1-3.28-1.11,9.36,9.36,0,0,1-2.72-2.36,9,9,0,0,1-1.9-4.24,8.77,8.77,0,0,1,3.3-8.36,8.48,8.48,0,0,1,4.39-1.9,9,9,0,0,1,8.13,3.41l.33.41a1.73,1.73,0,0,1,.21.33l-12,9.52a7.4,7.4,0,0,0,2.93,1.95,6.9,6.9,0,0,0,3.3.35,6.15,6.15,0,0,0,3-1.31A6.63,6.63,0,0,0,257,54.84a4.9,4.9,0,0,0,.28-3.15l1.92-.84a6.64,6.64,0,0,1,.09,2.82,8.09,8.09,0,0,1-1.11,2.89A9.6,9.6,0,0,1,255.93,59Zm-11.35-3.69,10.36-8.23a7.15,7.15,0,0,0-2.9-2,6.59,6.59,0,0,0-3.26-.29,6.63,6.63,0,0,0-5,4,6.62,6.62,0,0,0-.43,3.25A7.18,7.18,0,0,0,244.58,55.35Z"/><path d="M268.91,21.7l2-1,6.83,6.14-.63-9.18,2.07-1,.68,11.08,9,7.69-1.42-23,2.34-1.15,1.27,26.12-1.91.94-9.82-8.41.59,12.93-1.88.92-19.82-17,2.31-1.13,17.32,15.21L277.25,29Z"/><path d="M307.82,31.77a8.68,8.68,0,0,1-6.88-.73,9.47,9.47,0,0,1-4.63-8.89,8.77,8.77,0,0,1,6.25-7.77,8.59,8.59,0,0,1,3.6-.33,8.69,8.69,0,0,1,3.27,1.07,8.91,8.91,0,0,1,2.62,2.23,9.59,9.59,0,0,1,2,6.66,9.11,9.11,0,0,1-.91,3.3,8.65,8.65,0,0,1-5.35,4.46ZM299,25a7.29,7.29,0,0,0,1.87,3.13,6.82,6.82,0,0,0,3,1.73A6.19,6.19,0,0,0,310.08,28a6.93,6.93,0,0,0,1.52-3.15,7.31,7.31,0,0,0-.18-3.65A7.23,7.23,0,0,0,309.53,18a7,7,0,0,0-3-1.76,6,6,0,0,0-3.4.06,5.68,5.68,0,0,0-2.82,1.87,7.43,7.43,0,0,0-1.5,3.15A7.23,7.23,0,0,0,299,25Z"/><path d="M325.31,11.29a7.52,7.52,0,0,0-3.78,2.05,6.49,6.49,0,0,0-1.8,3.77l2.11,10.75-2.3.45-3.37-17.23,2.16-.42.8,4.08A8.43,8.43,0,0,1,321,11.32a6.12,6.12,0,0,1,2.94-1.89l.58-.15a2.58,2.58,0,0,1,.43,0Z"/><path d="M328.06,1.76l2.32-.29L333,22.13a2.28,2.28,0,0,0,.69,1.66,1.73,1.73,0,0,0,1.21.26,5.76,5.76,0,0,0,1.21-.29c.4-.14.74-.27,1-.4l.65,1.79a7.42,7.42,0,0,1-1.53.64,10.11,10.11,0,0,1-1.6.37,3.51,3.51,0,0,1-2.62-.59,3.37,3.37,0,0,1-1.26-2.38Z"/><path d="M338.31,16.43a10,10,0,0,1,.93-4.59,8.62,8.62,0,0,1,2.82-3.38,7.35,7.35,0,0,1,4.19-1.36,7.2,7.2,0,0,1,4,1.06,8.8,8.8,0,0,1,2.83,2.76L352.84.06,355.18,0l.57,21.91a1,1,0,0,0,.22.69,1,1,0,0,0,.63.24l0,1.82a5.38,5.38,0,0,1-1.07.1,1.87,1.87,0,0,1-1.28-.54,1.63,1.63,0,0,1-.58-1.17l-.05-1.73a7.83,7.83,0,0,1-2.81,2.82,7.73,7.73,0,0,1-3.76,1.11,8,8,0,0,1-3.43-.65,8.59,8.59,0,0,1-2.77-2A9.29,9.29,0,0,1,339,19.79,9.51,9.51,0,0,1,338.31,16.43Zm15,2.29-.14-5.4a6,6,0,0,0-1.5-2.16,7.89,7.89,0,0,0-2.29-1.52,5.88,5.88,0,0,0-5.11.13,6.21,6.21,0,0,0-2,1.65,7,7,0,0,0-1.23,2.31,7.87,7.87,0,0,0-.38,2.63,7.24,7.24,0,0,0,2,4.91,6.73,6.73,0,0,0,2.17,1.47,6.38,6.38,0,0,0,2.63.47,5.73,5.73,0,0,0,1.84-.39,8,8,0,0,0,1.82-1,5.67,5.67,0,0,0,1.42-1.43A3.86,3.86,0,0,0,353.33,18.72Z"/><path d="M388.92,6.79l-8.58-1.42L376.76,27l-2.37-.4L378,5l-8.58-1.42.35-2.07,19.52,3.23Z"/><path d="M384.26,23.12A4.4,4.4,0,0,1,386,20.64,6.15,6.15,0,0,1,389,19.57a11.08,11.08,0,0,1,4,.43,18.84,18.84,0,0,1,2.56.92,13.07,13.07,0,0,1,2.25,1.26l.4-1.43a4.7,4.7,0,0,0-.34-3.75,5.09,5.09,0,0,0-3.22-2.27,8.16,8.16,0,0,0-2.88-.25,14.69,14.69,0,0,0-3.21.7l-.42-1.8a15.1,15.1,0,0,1,3.79-.79,10.39,10.39,0,0,1,3.47.35,7.2,7.2,0,0,1,4.53,3.19,6.69,6.69,0,0,1,.48,5.43l-2.18,7.81a.8.8,0,0,0,.58,1.13l-.49,1.76-.65-.11a1.07,1.07,0,0,1-.4-.11,1.73,1.73,0,0,1-1.11-.87A1.83,1.83,0,0,1,396,30l.31-1.25a7.9,7.9,0,0,1-3.64,1.43,9.91,9.91,0,0,1-4-.26,6.69,6.69,0,0,1-2.8-1.53,5.5,5.5,0,0,1-1.56-2.46A5,5,0,0,1,384.26,23.12Zm11.19,4.51a4.14,4.14,0,0,0,.81-.72,2,2,0,0,0,.41-.68l.68-2.46a14.53,14.53,0,0,0-4.52-2.2,7.5,7.5,0,0,0-4.17-.15,3,3,0,0,0-2.2,2.13,3.5,3.5,0,0,0,0,1.9,4,4,0,0,0,1.08,1.76,4.67,4.67,0,0,0,2.1,1.16,7.77,7.77,0,0,0,3.2.24A5.68,5.68,0,0,0,395.45,27.63Z"/><path d="M410.6,10.63l2.18.83-7.43,19.46a2.31,2.31,0,0,0-.17,1.79,1.76,1.76,0,0,0,.95.8,5.87,5.87,0,0,0,1.2.31c.42.06.78.11,1.09.13l-.27,1.88a7.27,7.27,0,0,1-1.65-.16,10,10,0,0,1-1.59-.42,3.48,3.48,0,0,1-2-1.76,3.35,3.35,0,0,1,0-2.69Z"/><path d="M421.44,42.45l-2-11-5,1.47-2.42,4.94-2.1-1,10.86-22.17,2.1,1-7.36,15,13.32-4.15,2.32,1.13-9.74,3.24,2.26,12.65Z"/><path d="M430.32,48.27a11.49,11.49,0,0,1-3.06-2.81,8.57,8.57,0,0,1-1.57-3.59l1.69-.84a10.15,10.15,0,0,0,1.47,3.34,8.4,8.4,0,0,0,2.39,2.28,6.35,6.35,0,0,0,3.3,1.15,2.64,2.64,0,0,0,2.38-1.28,2,2,0,0,0,.33-1.69,4.93,4.93,0,0,0-1-1.75c-.54-.63-1.2-1.35-2-2.17a23.09,23.09,0,0,1-2.05-2.57,4.6,4.6,0,0,1-.82-2.22A3.6,3.6,0,0,1,432,33.9,4.54,4.54,0,0,1,434.32,32a5.5,5.5,0,0,1,2.95-.14,9.26,9.26,0,0,1,3.19,1.36,9.61,9.61,0,0,1,2.72,2.51,6.75,6.75,0,0,1,1.2,2.9l-1.8.69a6,6,0,0,0-1.05-2.58,7.94,7.94,0,0,0-2.19-2,7.6,7.6,0,0,0-1.92-.9,3.57,3.57,0,0,0-1.88-.09A2.52,2.52,0,0,0,434,34.87a2,2,0,0,0-.38,1.49,3.66,3.66,0,0,0,.74,1.52c.41.54.94,1.18,1.58,1.91.95,1,1.74,2,2.39,2.84a6,6,0,0,1,1.19,2.46,3.41,3.41,0,0,1-.63,2.51,4.48,4.48,0,0,1-3.67,2.2A8.22,8.22,0,0,1,430.32,48.27Z"/><path d="M472.67,54.25l-6.36-5.93-14.94,16-1.76-1.64,14.94-16-6.36-5.93,1.43-1.53L474.1,52.71Z"/><path d="M468.75,83.81,467.28,82l7.58-6.18a7.69,7.69,0,0,0,2.77-3.64,3.52,3.52,0,0,0-.77-3.32,5.75,5.75,0,0,0-2.15-1.6,7.43,7.43,0,0,0-2.81-.63,6.62,6.62,0,0,0-2.87.55L460.72,74l-1.48-1.81,19.13-15.61,1.48,1.81-8.63,7a8.14,8.14,0,0,1,4.29.34A7.63,7.63,0,0,1,479,68.15a5.91,5.91,0,0,1,1.25,2.38,4.34,4.34,0,0,1-.11,2.34,6.94,6.94,0,0,1-1.23,2.27,14.13,14.13,0,0,1-2.19,2.19Z"/><path d="M489.11,86.44a7.54,7.54,0,0,0-3.32-2.74,6.46,6.46,0,0,0-4.17-.25l-9.17,6-1.28-2,14.7-9.61,1.2,1.85L483.59,82a8.42,8.42,0,0,1,3.86.41,6.17,6.17,0,0,1,2.85,2,5,5,0,0,1,.36.48,4,4,0,0,1,.21.38Z"/><path d="M480.35,103.56a8.63,8.63,0,0,1-.52-6.91,9,9,0,0,1,1.73-3,8.89,8.89,0,0,1,2.76-2.16,9.08,9.08,0,0,1,6.84-.72,8.79,8.79,0,0,1,3.07,1.61,9.15,9.15,0,0,1,3.26,6.3,9,9,0,0,1-.47,3.42,8.85,8.85,0,0,1-1.72,3,9.48,9.48,0,0,1-2.82,2.2,9.26,9.26,0,0,1-6.78.7,8.78,8.78,0,0,1-3.06-1.59A8.93,8.93,0,0,1,480.35,103.56Zm5-9.91a7.23,7.23,0,0,0-2.75,2.4,6.75,6.75,0,0,0-1.15,3.25,6,6,0,0,0,.68,3.33,5.88,5.88,0,0,0,2.33,2.46,6.89,6.89,0,0,0,3.37.93,7.48,7.48,0,0,0,6.31-3.26,7,7,0,0,0,1.18-3.28,6,6,0,0,0-.67-3.33,5.71,5.71,0,0,0-2.35-2.44A7.34,7.34,0,0,0,489,92.8,7.15,7.15,0,0,0,485.38,93.65Z"/><path d="M492.69,111.64l9.7-3.51.79,2.2-9.31,3.37a7.77,7.77,0,0,0-3.85,2.5,3.54,3.54,0,0,0-.34,3.43,6.42,6.42,0,0,0,1.46,2.31,6.87,6.87,0,0,0,2.36,1.57,7.28,7.28,0,0,0,2.9.56l10.39-3.75.8,2.19-13.91,5a1,1,0,0,0-.58.43.89.89,0,0,0,0,.67l-1.72.62-.27-.6-.17-.41A1.94,1.94,0,0,1,491,127a1.62,1.62,0,0,1,.89-.89l2.2-.87a8.36,8.36,0,0,1-4.06-1.91,8.62,8.62,0,0,1-2.56-3.7,5,5,0,0,1,.36-4.66A9.32,9.32,0,0,1,492.69,111.64Z"/><path d="M493.59,140a7.73,7.73,0,0,1,0-3.45,8.39,8.39,0,0,1,1.4-3,9.46,9.46,0,0,1,5.59-3.64,9.93,9.93,0,0,1,3.55-.16,9,9,0,0,1,3.22,1.05,8,8,0,0,1,2.53,2.13,7.75,7.75,0,0,1,1.44,3.14,7.15,7.15,0,0,1-.25,4.15,10.59,10.59,0,0,1-2.15,3.41l3.6-.79.45,2.05-17.23,3.78a6.91,6.91,0,0,1-4.26-.28,7.29,7.29,0,0,1-3.14-2.58,11.38,11.38,0,0,1-1.76-4.1,9.83,9.83,0,0,1,0-5.07,8.94,8.94,0,0,1,2.18-3.64l1.4,1.17a6.58,6.58,0,0,0-1.81,3.3,8.93,8.93,0,0,0,0,3.85,8.29,8.29,0,0,0,1.28,3,5.31,5.31,0,0,0,2.3,1.89,5.14,5.14,0,0,0,3.21.19l3.4-.74a7.69,7.69,0,0,1-3.19-2.19A7.54,7.54,0,0,1,493.59,140Zm2,.22a5.63,5.63,0,0,0,.8,1.92,7.26,7.26,0,0,0,1.37,1.55,6.39,6.39,0,0,0,1.66,1,3.78,3.78,0,0,0,1.7.33l5.32-1.17a7.27,7.27,0,0,0,3-4.39,6.11,6.11,0,0,0,0-2.59,5.66,5.66,0,0,0-1.19-2.5,6.2,6.2,0,0,0-2.05-1.59,8,8,0,0,0-2.53-.73,7.84,7.84,0,0,0-2.61.11,7.32,7.32,0,0,0-2.51,1.08,7.76,7.76,0,0,0-1.91,1.88,6.4,6.4,0,0,0-1.05,2.41A6.57,6.57,0,0,0,495.61,140.17Z"/><path d="M497.78,168l-.2-2.33,9.74-.86a7.68,7.68,0,0,0,4.34-1.45,3.52,3.52,0,0,0,1.22-3.18,5.74,5.74,0,0,0-.88-2.53,7.7,7.7,0,0,0-2-2.1,6.7,6.7,0,0,0-2.68-1.16l-10.69.94-.2-2.32,24.59-2.17.21,2.32-11.09,1a8.31,8.31,0,0,1,3.36,2.69,7.76,7.76,0,0,1,1.51,3.95,5.94,5.94,0,0,1-.3,2.67,4.44,4.44,0,0,1-1.41,1.88,7.31,7.31,0,0,1-2.29,1.19,14.28,14.28,0,0,1-3,.58Z"/><path d="M496.65,190.94a10.79,10.79,0,0,1,1.53-4.75,8.34,8.34,0,0,1,3-2.85,11.67,11.67,0,0,1,4-1.28,18.2,18.2,0,0,1,4.49-.06l12,1.28-.25,2.36-12-1.28a17.32,17.32,0,0,0-3.67,0,10.26,10.26,0,0,0-3.34.94,6.46,6.46,0,0,0-2.49,2.16,9.12,9.12,0,0,0-.78,7.6,6.58,6.58,0,0,0,2,2.64,9.86,9.86,0,0,0,3,1.58,17.14,17.14,0,0,0,3.55.76l12,1.29-.26,2.39-12-1.29a18.78,18.78,0,0,1-4.51-1,10.79,10.79,0,0,1-3.65-2.17,8.75,8.75,0,0,1-2.29-3.44A10.73,10.73,0,0,1,496.65,190.94Z"/><path d="M493.08,210.81a11.41,11.41,0,0,1,1.63-3.82,8.59,8.59,0,0,1,2.85-2.68l1.36,1.31a10.32,10.32,0,0,0-2.65,2.5,8.24,8.24,0,0,0-1.36,3,6.25,6.25,0,0,0,0,3.5,2.63,2.63,0,0,0,2,1.82,2,2,0,0,0,1.7-.25,4.83,4.83,0,0,0,1.3-1.57c.41-.71.87-1.57,1.39-2.58a20.31,20.31,0,0,1,1.75-2.78,4.54,4.54,0,0,1,1.81-1.52,3.67,3.67,0,0,1,2.32-.1,4.45,4.45,0,0,1,2.56,1.5,5.45,5.45,0,0,1,1.12,2.74,9.38,9.38,0,0,1-.21,3.46,9.7,9.7,0,0,1-1.47,3.4,6.8,6.8,0,0,1-2.33,2.1l-1.26-1.47a5.82,5.82,0,0,0,2.09-1.85,8,8,0,0,0,1.19-2.74,7.63,7.63,0,0,0,.2-2.11,3.53,3.53,0,0,0-.54-1.8,2.46,2.46,0,0,0-1.6-1,2.07,2.07,0,0,0-1.54.13,3.65,3.65,0,0,0-1.18,1.2c-.38.57-.8,1.28-1.28,2.14-.66,1.23-1.29,2.29-1.88,3.19a6,6,0,0,1-1.93,2,3.39,3.39,0,0,1-2.57.23,4.46,4.46,0,0,1-3.3-2.72A8.24,8.24,0,0,1,493.08,210.81Z"/><path class="cls-1" d="M462.61,252.86a2.07,2.07,0,0,1-1.06-.29,2.11,2.11,0,0,1-.76-2.89,151.06,151.06,0,0,0,8.5-17.09c30-71.32-.63-152.44-68.18-180.82C348,29.45,286.12,45.59,247.21,92a147.37,147.37,0,0,0-19.58,30.26,2.11,2.11,0,1,1-3.8-1.85A151.66,151.66,0,0,1,244,89.23c40.11-47.78,103.91-64.4,158.78-41.36,69.7,29.29,101.3,112.89,70.43,186.36a153.83,153.83,0,0,1-8.74,17.58A2.12,2.12,0,0,1,462.61,252.86Z"/><rect class="cls-1" y="345.29" width="91.25" height="1"/><rect class="cls-1" x="339.27" y="344.79" width="182.34" height="2"/><rect class="cls-1" x="491.39" y="336.51" width="30.23" height="18.71"/></svg>